<?xml version="1.0" standalone="no"?>
<!DOCTYPE svg PUBLIC "-//W3C//DTD SVG 20010904//EN"
 "http://www.w3.org/TR/2001/REC-SVG-20010904/DTD/svg10.dtd">
<svg version="1.0" xmlns="http://www.w3.org/2000/svg"
 width="1024.000000pt" height="1024.000000pt" viewBox="0 0 1024.000000 1024.000000"
 preserveAspectRatio="xMidYMid meet">
<metadata>
Created by potrace 1.14, written by Peter Selinger 2001-2017
</metadata>
<g transform="translate(0.000000,1024.000000) scale(0.100000,-0.100000)"
fill="#000000" stroke="none">
<path d="M3080 10234 c-342 -41 -609 -164 -829 -383 -469 -467 -484 -1194 -34
-1682 115 -124 287 -244 446 -310 70 -29 92 -42 91 -56 -1 -10 -9 -72 -19
-138 -24 -156 -25 -454 -2 -607 43 -285 148 -584 286 -810 23 -37 41 -71 41
-75 0 -5 -116 -65 -257 -133 -297 -144 -479 -242 -648 -348 -530 -332 -891
-746 -1083 -1244 -150 -390 -159 -706 -26 -977 82 -166 222 -281 399 -326 76
-19 241 -19 323 0 297 70 635 348 748 616 30 70 50 100 41 59 -10 -43 -19
-207 -21 -374 l-1 -160 -65 -16 c-468 -119 -841 -512 -974 -1027 -44 -170 -60
-453 -36 -649 87 -719 606 -1351 1259 -1535 222 -62 425 -71 641 -29 404 79
740 341 935 730 47 94 125 312 125 350 0 25 20 26 141 1 358 -72 749 -72 1123
0 55 10 101 18 102 16 1 -1 12 -38 23 -83 69 -272 226 -529 435 -713 434 -383
1062 -433 1596 -127 143 82 242 159 370 286 286 287 472 655 536 1060 26 161
24 415 -4 570 -58 320 -196 594 -407 805 -170 169 -379 291 -592 345 l-42 10
0 199 c0 110 -2 221 -6 248 -6 54 -13 60 69 -66 57 -88 231 -266 326 -333 106
-75 199 -125 300 -159 81 -27 113 -33 215 -37 202 -7 342 44 471 173 146 146
228 396 210 640 -29 383 -216 810 -505 1156 -312 372 -714 647 -1446 989 -99
46 -182 85 -184 86 -2 2 13 29 33 62 144 237 246 522 292 817 25 160 23 468
-4 635 -12 69 -18 128 -14 131 4 3 44 21 90 39 276 109 530 352 661 631 163
346 145 762 -46 1094 -131 228 -315 398 -558 515 -202 97 -363 134 -590 134
-163 0 -280 -20 -430 -71 -303 -105 -549 -303 -702 -566 -33 -57 -49 -76 -62
-73 -72 23 -249 61 -365 78 -198 29 -504 29 -702 0 -117 -17 -259 -48 -360
-77 -18 -6 -27 4 -61 62 -237 397 -637 631 -1108 647 -60 2 -126 2 -145 0z
m270 -319 c277 -42 536 -205 682 -429 21 -33 38 -63 38 -67 0 -4 -53 -35 -117
-69 -467 -245 -828 -616 -1043 -1074 -27 -56 -52 -114 -55 -129 -9 -35 -21
-34 -108 7 -271 129 -458 351 -532 632 -23 85 -30 236 -16 332 37 251 185 485
399 631 222 150 481 208 752 166z m3925 -19 c345 -89 620 -356 706 -686 29
-108 31 -308 6 -413 -66 -271 -253 -500 -514 -631 -111 -56 -117 -56 -138 1
-33 87 -136 285 -199 382 -218 335 -526 611 -896 805 l-119 62 42 65 c54 83
165 200 243 255 121 86 282 153 432 180 119 21 314 12 437 -20z m-1895 -2613
c334 -48 588 -166 780 -363 101 -103 166 -208 212 -340 32 -92 33 -100 33
-255 0 -178 -14 -250 -78 -401 -130 -309 -368 -535 -682 -647 -249 -89 -627
-108 -913 -46 -407 88 -706 338 -858 715 -52 128 -74 238 -74 374 0 240 82
435 259 611 217 216 523 337 941 373 74 6 268 -4 380 -21z m-2387 -4308 c442
-78 850 -436 1037 -913 84 -213 115 -398 107 -632 -10 -280 -90 -516 -244
-717 -181 -238 -442 -376 -739 -390 -200 -10 -372 26 -559 117 -398 192 -705
602 -807 1076 -31 146 -33 451 -4 584 89 407 317 691 668 831 140 56 366 74
541 44z m4612 -4 c362 -75 647 -339 773 -716 140 -421 62 -914 -206 -1316
-218 -326 -567 -559 -912 -610 -110 -16 -302 -7 -401 20 -393 102 -675 419
-771 864 -18 83 -22 134 -22 277 1 151 4 192 28 304 126 601 571 1073 1114
1181 101 20 290 18 397 -4z"/>
<path d="M4774 6799 c-72 -21 -110 -92 -93 -171 23 -101 152 -242 282 -309
l57 -29 0 -226 0 -226 -47 6 c-173 25 -365 117 -467 224 -63 67 -155 40 -156
-46 0 -26 10 -42 53 -83 116 -112 269 -194 444 -241 77 -20 111 -23 263 -22
156 1 186 4 274 27 126 34 243 91 345 167 100 76 121 102 121 151 0 29 -6 42
-26 58 -43 34 -74 27 -140 -31 -79 -69 -149 -113 -236 -147 -66 -27 -204 -61
-243 -61 -13 0 -15 29 -15 224 l0 223 68 34 c130 65 272 234 272 324 0 65 -71
134 -160 154 -55 13 -553 13 -596 0z"/>
</g>
</svg>
